<svg id="empty" xmlns="http://www.w3.org/2000/svg" viewBox="0 0 1448 1448"><title>gicon</title><path fill="#111827" d="M0,737V711a25.53,25.53,0,0,0,1-4.24c1.06-17.68,1.54-35.42,3.21-53s3.72-35,7-52.25c4.7-24.75,9.56-49.55,16.28-73.8,18.42-66.48,46.37-128.91,83-187.42a714.11,714.11,0,0,1,78.14-103c13.12-14.36,26.92-28.2,41.31-41.3,18-16.39,36.31-32.6,55.6-47.44A712.4,712.4,0,0,1,441.83,57.59C508.12,29.38,577.17,11.93,648.68,4.23c18.58-2,37.36-2.14,56-3.2,2.77-.16,5.52-.68,8.28-1h22a35,35,0,0,0,4.78,1c21.47,1.39,43,2.33,64.39,4.21,15.37,1.35,30.85,3,45.91,6.18,28.3,6.07,56.64,12.33,84.42,20.4C990,47.9,1042.36,71.59,1092.13,101a721.07,721.07,0,0,1,141.78,109.65c12.73,12.66,25,25.86,36.56,39.6,15,17.84,29.71,36,43.37,54.86,33.46,46.21,60.37,96.13,81.68,149.06,15.09,37.46,27.26,75.86,35.33,115.44,4,19.43,7.08,39,10,58.67,2.15,14.32,3.76,28.75,4.94,43.19.91,11.24.75,22.57,1.16,33.85a39.94,39.94,0,0,0,1,5.67v26a18.13,18.13,0,0,0-1,3.67c-1.07,17.85-1.55,35.75-3.22,53.54-1.65,17.49-4.28,34.9-6.85,52.3-4.43,30-11.87,59.38-20.67,88.39a718.65,718.65,0,0,1-66.93,153.24,727.89,727.89,0,0,1-107.61,141.44,736.25,736.25,0,0,1-177.16,133,721.75,721.75,0,0,1-147.94,59.09A738,738,0,0,1,789,1444.81c-15.33,1.44-30.8,1.44-46.2,2.17a65.66,65.66,0,0,0-6.78,1H712a33.27,33.27,0,0,0-4.78-1c-17.84-1.06-35.74-1.54-53.53-3.21-17.49-1.65-34.89-4.29-52.28-6.85-30-4.43-59.39-11.92-88.41-20.69a715.29,715.29,0,0,1-152.84-66.72,722.58,722.58,0,0,1-222.34-201.27,715.93,715.93,0,0,1-120-266.51A782,782,0,0,1,3.21,788.93C1.71,773.61,1.76,758.14,1,742.74A43.71,43.71,0,0,0,0,737Zm1398.79-8.51c-2.44-183.22-62.8-339.22-186.07-468.75C1087.67,128.33,932.88,57.56,751.6,50.46c-189.38-7.41-355,54.71-492.44,185.45C128,360.68,57.59,515.38,50.46,696.28c-7.45,189,54.42,354.41,184.68,491.77,124.94,131.76,280,202.61,461.49,209.46,194.56,7.35,363.32-57.93,502-195.08C1331.25,1071.2,1395.72,910.23,1398.79,728.49Z"/><path fill="#111827" d="M174.21,720.31a87.4,87.4,0,0,0,7.86,34.76c4.3,9.43,9.89,18.27,14.79,27.43a27.76,27.76,0,0,1,1.66,5.33c-2-.22-4.49.27-5.77-.78-7.15-5.8-15.11-11.09-20.74-18.18-16.2-20.41-24.37-44.2-27.06-70.1-2.43-23.38-.25-46.39,4.33-69.24a585.11,585.11,0,0,1,25.18-89.22c14.6-39.22,33.14-76.43,57.47-110.61,24.78-34.81,49.42-69.72,74.54-104.29,15.35-21.11,31.3-41.78,47.29-62.4,29.25-37.74,65.11-67.46,108.4-87.89a146.28,146.28,0,0,1,46.29-13c16.09-1.82,32.38-2,48.39-4.33a345.78,345.78,0,0,0,43.85-9.33c18.73-5.23,37.4-9.33,57-8.58,13.17.51,26.15,2.2,38.41,6.55,10.23,3.62,19.74,2.46,29.49-.29,13.13-3.7,26-8.29,39.32-11.38,19.19-4.47,38.81-4.87,58.37-3,13.45,1.3,27,2.67,40.2,5.32,25.9,5.18,49.76,15.77,71.87,30.17,5.35,3.49,10.46,5.38,17.08,3.85,16.53-3.82,31,1.88,44.23,11.22a89.06,89.06,0,0,1,30,37.16c14.17-3.85,27.83-8.63,41.89-11.12,18.51-3.29,36.87-1.38,53.76,7.85,11.81,6.45,21.06,16.09,30,25.9,14.73,16.21,27.29,34.1,39.05,52.55,17.33,27.17,29.69,56.56,38.58,87.46,7.13,24.81,14.54,49.53,21.28,74.44,5.08,18.8,8.89,37.92,9.66,57.46.54,13.78,1.5,27.63.71,41.36-.9,15.64-5.66,30.66-11.15,45.32-1.84,4.93-3.73,10-6.67,14.29-3.74,5.45-3.84,11.52-4.59,17.48-2.45,19.54-9.08,37.69-17.66,55.25a2.61,2.61,0,0,0-.27,1.8c6.92-8,12.57-16.82,15.62-26.83,4.25-14,7.5-28.2,11.2-42.32a11.25,11.25,0,0,1,.94-2.78,26.29,26.29,0,0,1,2.27-2.92c.91.85,2.34,1.54,2.64,2.57a139.41,139.41,0,0,1,3.91,15.23c4.05,22.82,4.62,45.76,3.3,68.91-1.53,27-4.13,53.87-10.66,80-3,12.13-1.4,22.3,2.13,33.7a219.18,219.18,0,0,1,8.07,41.57,227.58,227.58,0,0,1,1,42.71c-3.49,41.69-15.22,80.77-42.57,113.45-12.72,15.2-29,26.3-46.85,35.18a202.5,202.5,0,0,1-43.25,16c-1.25.3-2.59,2.24-3,3.67-3.89,13.47-8.11,26.76-16.11,38.54-13.24,19.5-30.21,34.89-51.75,44.34a330.6,330.6,0,0,1-46.23,16.47,77.45,77.45,0,0,1-42.95-.26c-3.42-1-6.36-3.72-9.44-5.78-.65-.44-1.42-1.68-1.22-2.19a3.07,3.07,0,0,1,2.18-1.6c2.65-.23,5.32-.21,8-.19,14.81.13,25.9-6,33.49-18.92,7.33-12.45,13.65-25.31,15.57-39.72a90.57,90.57,0,0,0,.33-22.85c-1.68-13.55-4.49-27-6.84-40.42a6,6,0,0,0-.56-1.1c-4.09.28-6.09,1.47-6.76,6.57-3.67,28-11.88,54.46-29.52,77.06-10.06,12.87-23.34,22-38.41,28-10,4-20.6,6.38-31,9.37-3.9,1.13-9.37,7.27-9.84,11.83a131.27,131.27,0,0,0-1,14.4c.24,31.16-10.71,58.41-29.1,83-2.6,3.47-6.47,6.13-10.11,8.62-1.63,1.12-4.17.9-6.51,1.32,3-6.9,5.68-13.09,8.37-19.28l-1.23-.64c-3.94,5.52-8.21,10.83-11.74,16.6-10.2,16.65-24.3,29.21-40.93,38.9-7.81,4.54-16.15,9.15-24.81,10.88-6.28,1.26-13.82-1.3-20.2-3.74-9.74-3.72-19-8.81-29.37-13.78,9,11.27,18.59,20.63,32.22,26.78-7.54,3.83-14.46,7.51-21.52,10.92-13.64,6.58-27.61,12.22-42.56,15.28-13.56,2.78-27.1,3.64-40.75,1-5.15-1-10.33-1.88-15.4-3.21-8.26-2.17-16.78-3.87-24.54-7.26-7.57-3.29-14.34-8.45-21.45-12.8-.91-.56-1.78-1.18-3.59-2.39l6.7,9.21a51.1,51.1,0,0,1-25.82,3.65c-13-1.38-25-5.1-35.47-12.52-8-5.7-15-12.9-22.35-19.52a57.92,57.92,0,0,1-4.5-5.06c-6.81,3.59-13.28,1.25-18.73-.68-24.14-8.58-43.58-22.74-51.82-48.55-.45-1.41-.8-2.85-1.12-4.3a21.79,21.79,0,0,0-6.12-11.15c-7-7.18-9.59-16.9-10.36-26.65-2.12-26.88,6-51.08,20.57-73.36a17.7,17.7,0,0,0,1-2.18c-3.71-1.44-7.57-2.57-11.08-4.36-10-5.08-15.16-14.09-18.17-24.33-1.06-3.59-2.93-4-5.76-3.68-8.91.86-11.3,3-14,11.77-1.88,6.06-2.58,12.27.37,17.88,2.31,4.39,6,8,8.94,11.73-10.64,3.79-32.12-7.74-40.65-22.66-9-15.78-5.36-32.25-2.82-49.21-9.15,6-19.3,7.89-29.4,8-13.34.12-26.62-2.07-38.82-8-6.49-3.14-12.55-7.15-18.79-10.79-2.47-1.45-3.19-3.22-.7-5.51,5.59,2,9.85-.78,13.5-4.5,10-10.2,16.21-23.24,18.68-39.22-2.84,2.8-4.74,5.26-7.16,7-12.88,9.08-26.92,13-42.88,10.77-19.65-2.7-36.38-11.23-52.2-22.67-5.9-4.26-12-7.89-15.91-14.28a6.94,6.94,0,0,1-1.16-3.93c3,2,6,4.16,9.14,6.07,7.89,4.84,16,8.74,25.67,8.77,12.3.05,22.26-5.12,31.38-12.53,14-11.38,18.42-27.13,20.21-44.21a168.28,168.28,0,0,0-5.28-62c-4-14.9-9.53-29.4-14.1-44.17-1.65-5.32-2.54-10.89-3.66-16.37-.58-2.81-1.61-4.8-4.49-6.3-17.61-9.13-30-23.75-40.49-40C190.42,764,181.27,742.7,174.21,720.31Zm551.2-4.47.37,1.14L807,730.47c-.89,1.45-1.79,2.33-2.58,2.24-11.22-1.29-22.43-2.7-34-4.13-1.87,5.82-7.16,9-12.91,10.95-6.75,2.32-14.12,3-19.16-3.19-2.61-3.2-5-5.05-10-5.09,1.37,5.56,1.23,12.11,4.4,15.87s9.54,4.39,14.38,6.36c-15.78,3.6-35.32-6.56-37.84-24.42-6.47,1-13,1.77-19.39,3-6.58,1.28-13,3.22-19.62,4.5-10.5,2-21,3.12-30.82-2.82a22.92,22.92,0,0,0-5.14-1.89c-1.25,2.79-1.57,5.3-2.74,5.78-5.08,2.13-10.37,4.18-15.91,1.16-3-1.66-6.14-3.19-9.14-4.91-6-3.46-11.9-6.94-18.48-9.6-5.81-2.35-11.77-6.89-13.55-14.21-2.09-8.64-4.47-17.23-6.11-26-.62-3.31.06-7.06,1-10.36.37-1.32,3.06-2,4.7-2.94-.23,1.75.06,3.82-.79,5.19-5,8-3.22,16.75,4.45,22.38,6.76,5,14.08,9.44,18,17.41,2.65,5.39,8.83,8,17,6.18-3.83-3.35-6.71-6.33-10-8.67-5.24-3.7-11-6.64-16.11-10.52-4-3-3.27-6.81,1.52-8.61a55.24,55.24,0,0,1,13.21-3c8.18-.92,16.68-.23,24.57-2.15,13.31-3.24,25.25-10,37-17,13.91-8.26,27.21-17.92,43.76-20.71,8.4-1.42,16.77-3.1,24-4.44l-9.52-2.93c-.09-.66-.18-1.32-.26-2,9.84-3.28,19.52-7.27,29.58-9.58a37.82,37.82,0,0,1,17.84.61c18.6,5.1,35.14,14.79,51.23,25.18,5.83,3.76,11.42,7.89,17.46,12.09-4.88-13.34-16.62-19.71-25.86-28.58a4.51,4.51,0,0,1,3.54.64c5.77,4.44,11.91,8.53,17.1,13.58,12.58,12.23,26.2,23.64,34.83,39.33,1.81,3.28,3.45,2.89,6.25,1.6,17.6-8.09,35.14-16.34,53-23.8,5.36-2.25,7.72-4.79,8.61-10.56.64-4.13-.79-5.29-3.54-7.3-13.71-10.06-27.64-19.9-40.68-30.79-11.55-9.64-22-20.63-33-30.86-12.91-11.93-23.25-25.28-29.27-42.26-13.4-37.84-23.12-76.28-24.12-116.67-.17-7,.19-14.22-4.21-21-13-20.09-24.92-40.82-33.56-63.29-1.52-4-1.18-5.75,3.12-7.18,12-4,24.33-4.36,36.75-3.94,1.24,0,2.44,1.28,4.63,2.51l-6.12.56c2.75,2.3,5.83,4.65,8.91,4.65a181.13,181.13,0,0,0,21.64-1.91,147.93,147.93,0,0,1,46.91,1.75,245.87,245.87,0,0,1,32.2,8.64c8.37,2.84,16.9,6.18,24.2,11,18.3,12.15,35,26.3,49,43.48,13.33,16.44,27,32.6,39.62,49.59,20.81,28.09,37.15,59,53.69,89.66,1.41,2.62,2.9,5.2,4.38,7.78s2.95,5,5,8.63a14,14,0,0,0,0-2.89c-13.28-36.72-27.44-73.06-47.45-106.81-13.46-22.72-28.39-44.35-47.2-63.05-7.19-7.16-14.92-13.79-21.92-21.12-7.75-8.12-16-15.33-26.63-19.4a67,67,0,0,1-8.11-3.51c-12.91-7-26.59-11.93-40.7-15.79-8.22-2.26-16.47-4.41-24.57-7-5.38-1.73-5.45-3-1.67-7,12.62-13.36,27.38-16.29,45-8.34,18.4,8.32,32.66,21.52,45.12,37.07,13.89-8.19,37-9.06,52.24-1.65,7.07,3.45,14.25,6.74,21,10.72,20.65,12.14,39.58,26.48,55.11,44.95,3.54,4.21,7.25,8.26,11.15,12.67,2.8-12.59,3-12.74-3.7-21.9-12-16.31-24.35-32.27-39.13-46.23-9.87-9.32-19.49-18.91-29.11-28.49-3.6-3.57-3.37-5.2,1-7.43a67.86,67.86,0,0,1,39.39-7c18,2.2,34.72,8.48,50.31,17.74a23.9,23.9,0,0,0,4,1.39c0-2.79-.36-5,.06-7.07,4.16-20.11,8.16-40.27,12.91-60.24,1.28-5.41.19-8.83-3.64-12.2-4.21-3.71-8.15-7.76-12.41-11.42-11-9.49-23.47-15.34-38.44-15.66-17.8-.38-34.4,5.11-51.24,9.43-8.37,2.14-8.18,2.51-12.2-4.68a82.39,82.39,0,0,0-33.39-33.11c-9-4.85-18.69-7.86-29.43-6.23,5.77,7.11,13.42,10.09,21.45,12.75,13.74,4.55,23.42,14,29.27,27,4.05,9.06,2.29,11.56-7.63,12.88-10.12,1.34-10,1.17-15.92-8.29-15.39-24.67-34-45.57-61.77-57.32-30.84-13.06-61.83-24.5-95.82-25.68-20.76-.71-41.47-2-62,2.31-3.55.74-7.12,1.38-10.62,2.28-3.3.84-6.53,2-10.43,3.16,13.41,7.23,26.44,12.82,40.89,14.76-5.48,1.27-10.88,2.7-16.21,2.51-12.26-.43-23.36-5-33.65-11.46-4.37-2.73-8.32-1.37-13.43-.24,3,1.8,5.25,3,7.34,4.45,10.71,7.46,22.91,10.22,35.6,11.69,10.94,1.28,22.07,1.93,32.74,4.45,24.87,5.89,47.64,16.8,68.42,31.69,7,5,13.5,10.81,20.23,16.24l1.11-.64c-3.71-5.88-6.81-12.27-11.24-17.54-11.44-13.59-26.94-21.59-42.69-29-6.46-3-13.3-5.25-20-7.83a41.87,41.87,0,0,1,10.3.91C842.84,175.15,862,183,878.83,196c11.52,8.87,21.32,19.27,22.09,34.74.49,10-.74,20.05-.92,30.08-.25,14.69-9.06,23.05-21.43,28a81,81,0,0,1-22.78,5.76c-13,1.14-25.66-1.39-34.45-12.18-4-4.87-6.16-11.16-9.09-16.85C801.17,244,787.51,224.22,772.85,205c-17.45-22.94-40.7-37.06-67.34-45.81-12.54-4.12-25.88-6.21-39-8a131.32,131.32,0,0,0-30.3-.76c-11.4,1.13-22.62,4.21-33.88,6.58-7.56,1.59-15.07,3.42-22.32,5.08,10.25,3.64,20.17,8.56,30.66,10.57,17.89,3.44,36.12,5.2,54.24,7.38,13.27,1.6,26.74,1.9,39.85,4.27,25.2,4.57,47.63,15.54,65,34.54a174.84,174.84,0,0,1,36.68,62.39c3.48,10.27,2,20.41-3.16,29.79-3.39,6.21-10,8.15-16.31,9.92-9.13,2.58-18.34,4.92-27.61,6.88-7.65,1.62-10.71.23-13.27-4.36-6.8-12.23-13.27-24.67-20.61-36.57A303.57,303.57,0,0,0,669,219.1a183.23,183.23,0,0,0-52-33c-27.4-11.35-56.27-15.49-85.86-14.09a258.72,258.72,0,0,0-26.58,3.08c-2,.31-3.7,2.52-5.54,3.85,1.58,1.4,2.93,3.31,4.76,4.12,11,4.87,22.91,6.06,34.66,6.8A249.51,249.51,0,0,1,588,197.8c34.66,9.34,65.13,25.71,88.83,53.47,17.84,20.9,30.68,44,34,71.71,1,8.14-3.31,16.6-9.37,17.94-11.39,2.52-22.77,5-34.13,7.72-8,1.87-15.26,2-22.48-3.25-16.6-12.18-33.51-23.94-50.5-35.58a297.23,297.23,0,0,0-53.73-29,211.47,211.47,0,0,0-52.44-14.71,194.62,194.62,0,0,0-25.17-2c-6.55-.07-13.1,1.31-19.67,1.82-20.4,1.56-39.58,7.34-58.08,15.91-18.75,8.68-34.48,21.47-49.05,35.73-6,5.86-11.91,12.24-16.13,19.4-10.45,17.73-19.94,36-29.76,54.15-17.77,32.74-33.18,66.54-44.8,102-3.81,11.61-6.72,23.53-10,35.3l1.39.47a18.67,18.67,0,0,0,1.25-2.74c1.28-4.41,2.39-8.87,3.72-13.26,10.23-33.7,24.5-65.69,41.63-96.39a418.78,418.78,0,0,1,48.94-70.18,281,281,0,0,1,49.13-44.71c6.76-4.85,14.22-8.72,21.37-13l1.1,1.54c-.71.46-1.42.91-2.12,1.38-13.57,9.33-23.66,21.85-30.74,36.43-8.06,16.57-14.9,33.73-22.22,50.65-1.83,4.23-3.5,8.52-5.25,12.79,19.21-21.95,37.73-44.07,64.16-59-5.12,6.6-10.53,11.83-13.87,18.16-12.7,24.1-24.75,48.54-37,72.88-1.5,3-2.73,6.09-4.08,9.14C436,308.26,565.53,317.27,640.21,351.73c-5.75,1.24-10.25,2.4-14.82,3.17-11.48,1.94-23.2,2.87-34.44,5.74C573.83,365,557.12,371,540.1,375.74c-35.25,9.93-67.21,25.46-91.25,54-7.62,9.06-16.22,18.35-20.35,29.08-11.33,29.39-21,59.45-30.4,89.53-6.31,20.23-10.38,41.14-20.17,60.22-5.18,10.09-10.43,20.25-12.05,31.69-.25,1.76.2,4.5,1.39,5.44,6.41,5.06,13.17,9.7,19.81,14.48,0-5-.14-9.47.05-13.92.12-2.9,1.51-5.5,4.8-5.11s6.72.95,9.2,2.71c15.08,10.71,30.13,21.49,44.76,32.81,13,10,28,8.53,42.66,8.47,4.53,0,7.39,1,10.3,4.26,6.2,6.95,8.26,15.66,11,24.09,3.82,11.57,3.81,11.65,16.27,11.45,1.89,0,4.74-.62,5.42-1.88,1.29-2.37,2.35-5.17-.45-8.06-3.92-4-6.9-8.84-6.94-16.09,5.18,5.5,9.3,10.74,14.31,14.93s10.71,7.13,16.11,10.63a115.41,115.41,0,0,1-22.32,2.79c-7.67.28-15.36.06-23.1.06-1.24,3.69,4.19,8.17-1.16,10.81-3.68,1.83-7.85,2.69-11.46,3.87-.32,1.08-.62,2.08-.93,3.08a8.88,8.88,0,0,1-2.84-1c-2-1.74-3.85-3.69-5.85-5.65-6.29,9-10.35,11.77-25.82,8,2,6.34,11.44,8.47,18,5a29.22,29.22,0,0,1,5.41-1.63c.12.55.25,1.09.38,1.64-5.5,4.63-12.39,5.95-19.12,5-9.63-1.4-16.91-6.35-17.24-18.92-4,2.91-7.34,4.71-9.8,7.34-3.74,4-2.3,7.2,3.13,8.23,2.59.5,5.14,1.21,7.72,1.82l-.38,1.76-31-5.85-.36-2.53,36.73-16.21a35.25,35.25,0,0,0-4.13-1.1q-26.32-4-52.66-8c-5-.77-10.57,2.88-9.88,6.85,2.18,12.39,4.84,24.66,11.52,35.62,3.23,5.3,6.31,10.7,9.45,16l-1.37,1.32c-14-1.28-18.88-12.75-24.61-25a30.82,30.82,0,0,0,0,4.81c2.07,9.85,4.24,19.68,6.31,29.54,1,4.67,2.25,9.34,2.58,14.07.29,4.19-3.62,5.07-6.75,5.55-1.12.17-3.3-1.44-3.71-2.66-1.7-5.1-2.55-10.5-4.38-15.55-4.87-13.45-9.29-27.17-15.44-40-4.42-9.25-10.7-17.73-23.24-18-5.09-.11-11.27-1-12.22-8.29-.45-3.44-.86-6.9-1.07-10.36-.51-8.16-.89-16.32-1.32-24.48-2.44,5.93-7.75,11-5.55,18.73a10.16,10.16,0,0,1-11.1.79c-3.59-2-1.85-5.82-1.13-9a95.13,95.13,0,0,1,15.75-34.54c7.46-10.46,15.68-20.57,29-24.48,1.42-.42,2.39-2.39,4-4.13-1.68-.3-2.2-.56-2.61-.44-1.11.34-2.16.82-3.24,1.26a57.93,57.93,0,0,0-25.54,20.25c-9.14,12.52-17,25.59-20.94,40.69-3.22,12.36-1.56,14.62,10.43,15.61.28,0,.54.31,1,.62a21.94,21.94,0,0,0,0,2.8c.8,6.69,1.5,13.4,2.59,20,.2,1.26,2,2.26,3.07,3.38.91-1.06,1.89-2.08,2.74-3.2,2-2.67,4.16-4.78,7.89-3.07a16.37,16.37,0,0,0,3.68,1.27c6.32,1.14,7.47,2.89,8.12,9.54,1.06,10.8,1.72,21.75,4.15,32.26,6.25,27,20,49.38,43.9,64.63,14.76,9.39,30.64,14.62,48.31,13.61l22.86-1.31a93.88,93.88,0,0,1-14,4.75c-15.73,4.55-31.82,5.12-47.41,1-13.21-3.53-25.06-10.75-35.12-20.37-12.85-12.3-21.16-27.51-27.58-43.82-4.94-12.54-6.87-25.73-7.07-39.19,0-2.07-.63-4.13-1.13-7.2-3,3.92-2.76,19.43.2,31.52,9.67,39.6,29.37,70.79,71,82.54-.8,2.26-1.81,4-2,5.86-1.39,13.44-1.12,26.93,3.69,39.62,5.08,13.38,12.25,26,17,39.48,6.77,19.37,12.25,39.19,18.08,58.88,1.44,4.86-5.38,15.56-10.41,17.11-2.08.63-4.32,1.87-6.29,1.55-12.69-2-20.66-10-24.52-21.79-2-6.12-3.51-12.93,4.3-17.27,1.2-.66,2-4.08,1.38-5.46s-3.24-2.71-5.13-3c-5.62-.79-9.32,2.53-12.25,6.83-12.88,18.85-15,39.59-11.44,61.62,2.91,17.88,12,31.89,25.13,43.72a60,60,0,0,0,31.17,14.8c7.34,1.17,14.92,1.08,22.4,1,3.92,0,5.25,1.76,5.82,5.12,2.35,14,4.62,27.94,7.2,41.86,1.08,5.8,2.9,11.47,4.7,18.47,1.15-2.61,1.59-3.83,2.2-5,4.11-7.69,7.94-15.55,12.5-23,3.88-6.3,9.82-5.88,13.19.57,2.29,4.38,4.16,9,6.24,13.47,5.58,12,10.65,24.28,19.86,34.13,1.09,1.16,3.25,2.56,4.42,2.2,10.78-3.25,21.45-6.87,32.16-10.37,3.73-1.22,4.41-3.4,3.09-7.13a61.57,61.57,0,0,1-3.26-13.42c-.73-6.38-5.12-9.57-9.52-13.23l-4.61,4.94c-.82-2.47-2-4.32-2-6.14.33-12.88,5.77-23.92,13.17-34,1.85-2.54,2.86-5.76,7.22-6.61,17.22-3.36,34.44-3,52.82-1.29l-4.92.71c6.47,1.68,13,3.13,19.24,5.2,1.46.48,2.9,3,3.16,4.75.49,3.42.14,7,.14,10.45,2.17-3.32,3.41-6.73,5.2-9.82,1.58-2.7.6-3.95-1.81-4.82-5.33-1.9-10.68-3.72-16.39-5.71,5.23-2.69,10.12-.94,14.7.47,5.14,1.58,9.87,4.54,15,6.16,6.54,2,7.15,2.28,6.19,8.16-2.89,17.87-5.88,35.73-8.79,53.59-.67,4-.59,7.64,4.85,8.34,2.08.28,4,1.57,6.08,2,15.38,3.38,30.72,7,46.23,9.73,4.27.75,9.83,2.63,13.53-2.87,6.7-10,14.38-19.37,20.37-29.75,7.48-13,14-26.49,20.25-40.12,2.9-6.36,6-7.83,10.63-2.24a222.25,222.25,0,0,1,17.82,23.81c5.6,9,10,18.69,15.42,29.07,5.71-15,11.58-29.42,16.72-44.14,3.18-9.1,5.1-18.64,7.88-27.9,1.61-5.35,4.77-7.05,9.64-4.43a78.82,78.82,0,0,1,15.8,10.88c13.81,12.55,23.27,28.22,30.81,45.14.88,2,2.09,3.8,3.49,6.3,9.51-16.94,18.83-33,27.68-49.4,13.8-25.51,28-50.85,40.73-76.87,16.18-33,20.81-68.89,23-105.11.77-12.95.83-25.94,1-38.92.15-9.12-.11-18.25.13-27.37.07-2.92,1.17-5.81,1.79-8.71l1.5.28c1,13.41,2,26.83,3,40,9.18-5.67,17.51-10.94,26-16,10.25-6.15,21.18-11.35,30.76-18.38,11.74-8.63,22.69-18.41,33.39-28.32,5.89-5.45,12.81-11.41,15.34-18.53,5.68-16,9.48-32.78,13-49.47a269,269,0,0,0,4.71-36.82c.71-10.73,1.43-21.83-.48-32.28-4-22-15.82-40.39-30.77-56.71-3.15-3.44-6.94-7.05-11.16-8.57-4.65-1.68-10.13-1.37-15.24-1.34-7.89,0-15.81,1.15-23.66.74-7.09-.37-11.49,2.29-13.9,8.6-5.21,13.66-11.38,27.07-15.19,41.12-6.86,25.36-12.25,51.12-18.36,76.69-.4,1.66-1.34,4-2.6,4.48-4.86,1.77-9.89,3.82-15,4.12a153.72,153.72,0,0,1-59-8.16c-5-1.7-4.9-2.22-2.47-6.93,7.42-14.37,14.55-28.9,22.13-44-26.41,9.74-49.8,23.87-73.74,37.34-.3,5.45,0,11.54-1.07,17.34-4.2,21.78-11.68,42.06-26.76,59.14-9,10.24-18.87,19.24-31.55,24.16a218.84,218.84,0,0,1-33.33,10c-8.48,1.81-17.42,2-26.16,2-8.55,0-17.11-1.59-25.67-1.63a116.39,116.39,0,0,1-45.63-9.31c-17.62-7.52-31-20-39.05-37.67-3.27-7.14-6.18-14.44-9.47-22.18-5.44,3.13-10.94,2-16.52.06-15-5.35-30.73-4.07-46.25-3.9-5,.05-10.12,1.14-15.12,2.05-1,.17-2.12,1.54-2.52,2.6-6.39,16.74-12.63,33.53-19,50.27a57,57,0,0,1-3.29,6.28l-.85-.44c1.31-3.81,2.61-7.62,4.36-12.72C499.26,842.1,488,854,470,853.15c6.43-6.42,13.92-11.63,20.16-18a133.7,133.7,0,0,0,17.17-21.72c5-7.92,8.89-16.61,12.63-25.24,3.61-8.32,6.42-17,9.58-25.5L528,761.54c-1.77,1.36-3.37,3.28-5.38,3.91s-4.69.16-7.44.16c2.24-1.89,3.7-3.14,5.2-4.36,1.75-1.42,3.34-3.52,5.34-4.08a135.42,135.42,0,0,1,48.59-4.87c12.07,1.06,24,3.86,34,11.62,2.73,2.12,4.75,5.74,7.76,6.79,5.72,2,8.13,6.51,10.71,11.07,3.17,5.59,6.15,11.29,9.06,17,8.81,17.43,21.25,31.29,39.92,38.05,10.72,3.89,22,6.43,33.06,9.14,7,1.71,14.27,4,21.26,3.56a149.13,149.13,0,0,0,33.32-5.8c9.43-2.87,18.45-7.71,27-12.83,11.13-6.7,17.19-18.18,23.92-28.8,9.95-15.69,15.81-32.8,14.56-51.51-.64-9.43-3.21-18.74-5.13-28.06a5.58,5.58,0,0,0-2.78-3.1c-12.35-6.59-24.69-13.24-37.22-19.48-6.13-3.05-12.74-4.44-19.53-1.7s-13.45,5.21-20,8.18C737.84,709.33,731.67,712.69,725.41,715.84Zm-443.75,4.23-1.75.27c0,1.78.08,3.57,0,5.34-1.2,24,.47,47.77,3.91,71.49,3.65,25.12,8.68,49.8,22.45,71.69,3.82,6.07,8.53,11.59,12.83,17.36l1.28-.87c-.26-.75-.47-1.52-.8-2.24-5.86-12.86-12.38-25.47-17.44-38.64-6.82-17.8-9.93-36.6-12.15-55.49-2.44-20.82-4.61-41.67-7-62.49A64.87,64.87,0,0,0,281.66,720.07Zm692.91-96.72L909.1,486.67C925.26,534.72,943.82,581.62,974.57,623.35ZM1150.78,990.6c13.62-18.53,18.64-67.31,12.82-85.34C1159.21,934.46,1155,962.62,1150.78,990.6Z"/><path fill="#111827" d="M658.16,945.25c9-1.22,16.06,3.35,22.76,7.53,21.82,13.61,41.51,29.93,60.64,47.19,11.65,10.52,25.48,19,39.34,26.6,13.44,7.35,24.54,4.1,35.79-6.54,6.68-6.33,12.33-13,12.93-22.61a22.35,22.35,0,0,0-.6-8.22c-4-12-10.72-22.22-21.17-29.8a40.12,40.12,0,0,1,24.35,15.85c5.59,7.78,10.67,16.53,13.39,25.63,3.76,12.56,1.67,25.6-3.12,37.87-6,15.44-12.6,30.58-25.59,41.85-9.34,8.09-19.33,15.26-31.54,17.76a75.39,75.39,0,0,1-36.59-1.06C730.46,1092,714.33,1083.2,699,1072c-8.36-6.14-19.33-7.07-30-5.72-10.12,1.28-20.23,2.69-30.39,3.66-15.3,1.46-30.62,3-46,3.72-14.47.66-29,.37-43.49.28-7-.05-13.94-.38-20.86-1.1-2.51-.26-4.84-2.07-7.3-3.06a6.23,6.23,0,0,0-3.17-.73c-8.64,1.74-17.4,3.11-25.77,5.73-3.17,1-7.71,5-7.64,7.56.19,7.62-3.66,11.71-9.52,14.54-5.69,2.75-11.56,5.54-17.67,7-17.49,4.12-34.48,2.15-50.16-7-9.7-5.62-16.53-14.32-21.92-23.93-13.51-24.08-14.25-49-3.61-74.27,2.19-5.19,4.82-10.74,11-12.69a47.6,47.6,0,0,1,6.45-1.06c-2.77,4.4-5.47,7.57-6.95,11.24-3.61,9,1.93,24.54,10.61,30.91a47.86,47.86,0,0,0,7.43,4.89c11.62,5.51,21.85,2.37,30-8,13.44-17.21,27-34.34,41.16-50.95,3.9-4.58,8.11-10.48,15.76-9.9.58,0,1.16.22,1.93.37-1.92,2.49-3.59,4.66-6,7.79,7.09.8,13,4.46,18.12-1.71a4.47,4.47,0,0,1,2-1.41,14.62,14.62,0,0,1,3.05-.36,11.63,11.63,0,0,1-.11,3c-1.23,4.12-2.6,8.19-4.13,12.93h6.54c-.58-8.26,2.24-12.51,9.94-14.26-7.8-2.93-15-5.55-22.05-8.29-4.83-1.86-10-3.24-14.3-6-5.63-3.58-10.69-8.11-15.74-12.54-7.86-6.9-9.23-16-8.21-25.84,1.66-16.14,9-30.11,16.93-43.89-2.38,6.42-4.33,13-7.23,19.2-5.33,11.31-5.58,23-3.71,34.94a7,7,0,0,0,2.27,3.66c7.73,6.91,15.68,13.56,23.28,20.6,2.91,2.7,5.55,5.11,9.76,5.6,12.95,1.52,25.9,4.06,38.83.13,5.12-1.56,10.12-3.55,15.58-5.49l-5.48-4.47c2.78-1.9,5-4,7.54-5.06,11.76-5,23.38-10.62,35.57-14.23,6.18-1.83,13-4.72,20.15-2.13,1.19.43,3.7-1.28,4.9-2.62,15-16.65,14.75-35.92.22-52.94-1-1.19-2.74-1.79-3.52-3.3,5.89.42,9.13,4.49,11.12,8.73a201,201,0,0,1,9.45,24.83c.75,2.36-.38,5.58-1.33,8.15a48.8,48.8,0,0,1-14.56,21,57.55,57.55,0,0,1-14.56,8.68l7.83-9.18c-12.72-.65-24,1.94-34.12,9.1,5.12,6,10.78,8.66,18.25,5.6.89-.36,2.27.46,3.42.73-.36,1.16-.44,2.54-1.14,3.44-3.47,4.47-7.11,8.82-10.83,13.07,1.83,1.25,5.16,1.32,8.59-.66,8-4.59,16.22-8.8,23.8-14,5.13-3.5,9.42-.72,13.08,1.09,9.42,4.68,18.3,10.45,27.35,15.86,3.11,1.86,6,4.17,9.21,5.81,1.27.64,3.19,0,4.82,0-.4-1.42-.36-3.23-1.25-4.18-6.1-6.53-12.11-13.24-21-16.24a12,12,0,0,1-2.89-1.82C658.23,946.64,658.3,946.17,658.16,945.25Z"/><path fill="#111827" d="M982.44,265.5c7.53-10.8,18-16.16,28.72-20.79,18.59-8,38.07-12.83,58.47-11.48,7.76.51,15.44,2.73,23.06,4.58a8.77,8.77,0,0,1,4.84,3.85c7.16,12,8,25.32,7.2,38.82-.08,1.24-2.47,2.88-4.09,3.4-11.39,3.71-23.17,3.49-34.76,1.79-16.56-2.44-33-5.53-49.46-8.84-9-1.81-17.81-4.52-26.61-7.13C987.37,269,985.26,267.15,982.44,265.5Z"/><path fill="#111827" d="M868.41,157.34c6.93,2.3,14.1,4,20.73,7,18,8.07,35.67,16.86,51.75,28.61C954.7,203,965.75,215.16,973,230.67c.28.61.58,1.2.83,1.82,3.43,8.49,3,11.07-4.52,16.35a72.24,72.24,0,0,1-39.57,13.09c-8.22.3-16.35-8-15.85-15.6.71-10.89.29-21.86.14-32.8-.09-5.64.06-11.43-1.2-16.85a31.5,31.5,0,0,0-6.27-12.49c-8.94-10.73-20.44-18.09-33.35-23.29-1.77-.71-3.47-1.59-5.19-2.39Z"/><path fill="#111827" d="M1076.47,713.56c-.52-2-1-4-1.58-6-3.32-11.14-10.13-20-18.55-27.69-4.57-4.16-9.9-3.24-12.79,2-3.65,6.67-7,13.53-10.19,19.82,16.26,10.82,28.35,24.41,35.54,41.81,2.49-7.57,5.22-15.92,8-24.26l1.86.56c-3.32,11.88-6.65,23.75-10.17,36.34-6.7-21.71-20.34-36.85-36.83-51.27-3.12,8.14-6.09,15.24-8.42,22.53-.55,1.71.62,4.38,1.74,6.14,5.55,8.77,11.67,17.2,17,26.1,5.72,9.59,4.54,20,2.32,30.39-.13.64-.22,1.29-.29,1.93a8.26,8.26,0,0,0,.4,1.45l24.25-22.81.8.09c-1.57,3.25-2.42,7.23-4.85,9.6-8.37,8.17-17.27,15.79-26,23.56a9.88,9.88,0,0,1-2.84,1.15c4.83-11.66,10.66-23.26,5.14-35.64a119.41,119.41,0,0,0-15.22-24.93c-7.3-9.24-10-18.27-4.61-29.23q7.81-16,15-32.22c5.71-12.94,21.3-10.72,27.56-2.15s11.37,17.39,13.64,27.77a47.05,47.05,0,0,1,.6,4.75Z"/><path fill="#111827" d="M641,863c3.2-4.58,7.13-4.47,11-2.14,9,5.39,17.83,11.19,26.88,16.57C697.25,888.33,716.19,898,737.5,902c7.24,1.36,14.51,2.55,21.75,4,1.39.27,2.65,1.2,4.92,2.28-5.8,4.05-11.46,3.45-16.17,2.33-17.65-4.18-35.26-8.66-52.55-14.12-12.87-4.06-24.66-10.78-35.48-19.05-5.73-4.38-11.75-8.38-17.6-12.59A8.87,8.87,0,0,1,641,863Z"/><path fill="#111827" d="M472.72,876.69c-2.07,3.48-3.37,7.26-5.94,9.7-8.59,8.18-17.13,16.57-26.68,23.51-6.34,4.6-14.27,7.1-21.71,10-1.69.65-4.3-1.08-6.49-1.72,1.3-1.84,2.19-4.31,4-5.4,9.77-6,20-11.27,29.54-17.66,6.18-4.17,11.53-9.66,16.91-14.91C465.81,876.76,467.08,875.87,472.72,876.69Z"/><path fill="#111827" d="M861.32,965.77c1-9.94,1.32-20,3.07-29.82A256.69,256.69,0,0,1,891,859.33c6.32-11.78,14.56-22,23.81-31.51,2.8-2.87,6-3.72,10-1.72-5,5.16-9.29,10.79-14.71,14.92-11.25,8.58-17.81,20.27-23.33,32.69-10.53,23.73-18,48.37-20.91,74.29-.66,6-1.65,11.92-2.49,17.88Z"/><path fill="#111827" d="M705.53,813.5c-25.15-1.78-42.59-15-56.39-35.38,1.64,0,3.43-.44,4.88.07,7.8,2.75,15.28,6.22,21,12.51A98.18,98.18,0,0,0,705.53,813.5Z"/><path fill="#111827" d="M513.19,744.92c8.47-8.73,18.25-12.24,28.55-13.7a128.06,128.06,0,0,1,64.54,6.93c7.2,2.74,14.09,6.32,21,9.72,4.49,2.21,5.62,7.22,3.43,13.5-1.84,5.27-6.67,8-13.31,6.84a58.16,58.16,0,0,0,4.63-4c5-5.32,2.69-14-4.48-18.17-14.22-8.32-29.79-11.63-46-13.24-15.31-1.51-30.08.91-44.6,5.17C522.58,739.31,518.6,742.16,513.19,744.92Z"/><path fill="#111827" d="M521,1125.56c-17.09,2.66-36.23-12.53-34.88-30.23.1-1.32,1.36-2.55,2.07-3.83,1,1,2.74,1.85,3,3,3,16,13.7,24.6,28.14,29.72C519.75,1124.37,520.08,1124.81,521,1125.56Z"/><path fill="#111827" d="M685.24,1123.22c1.69-.38,3.39-1.17,5.06-1.1,17.19.76,29.89-6.25,38-21.54a3.46,3.46,0,0,1,1-1.09c.22-.16.61-.09,1.17-.16,2.18,6.39-.84,11.13-5,15.36a35.32,35.32,0,0,1-20.92,10c-6.24.82-12.68.16-19,.16C685.38,1124.34,685.31,1123.78,685.24,1123.22Z"/><path fill="#111827" d="M437.71,804.35a22.41,22.41,0,0,1,4.05,1c6.89,3.11,13.69,6.39,20.59,9.48,5,2.25,9.91,1.19,14.75-.78,8.71-3.53,15.13-9.85,21.29-17.87C486.06,820.68,461.55,827.42,437.71,804.35Z"/><path fill="#111827" d="M603.37,752.29c1.94-.34,4-1.25,5.79-.92a68.68,68.68,0,0,1,9.78,3c3.18,1.12,4,4,2.57,6.34-.82,1.35-4.43,2.44-5.84,1.74-4.46-2.22-8.47-5.33-12.65-8.1C603.14,753.7,603.25,753,603.37,752.29Z"/><path fill="#111827" d="M573.78,724l-14.21,1.18c-.09-.48-.19-.95-.28-1.42l5.42-2.21c-3.36-4.34-8.75-8-6.68-15.75,5.51,5.86,10.48,11.14,15.44,16.43C573.57,722.82,573.67,723.41,573.78,724Z"/><path fill="#111827" d="M504.1,661.73,516.74,693C508.39,684.34,505.08,672.45,504.1,661.73Z"/><path fill="#111827" d="M1011.21,830.24l12.92-14.75C1022.87,822.83,1017.2,829.66,1011.21,830.24Z"/></svg>