<?xml version="1.0" encoding="utf-8"?>
<!-- Generator: Adobe Illustrator 24.0.0, SVG Export Plug-In . SVG Version: 6.00 Build 0)  -->
<svg version="1.1" id="empty" xmlns="http://www.w3.org/2000/svg" xmlns:xlink="http://www.w3.org/1999/xlink" x="0px" y="0px"
	 viewBox="0 0 1448 1448" style="enable-background:new 0 0 1448 1448;" xml:space="preserve">
<style type="text/css">
	.st0{fill:#FFFFFF;}
</style>
<g>
	<path d="M0,737c0-8.7,0-17.3,0-26c0.3-1.4,0.9-2.8,1-4.2c1.1-17.7,1.5-35.4,3.2-53c1.7-17.5,3.7-35,7-52.3
		c4.7-24.7,9.6-49.5,16.3-73.8c18.4-66.5,46.4-128.9,83-187.4c22.9-36.7,49-71.1,78.1-103c13.1-14.4,26.9-28.2,41.3-41.3
		c18-16.4,36.3-32.6,55.6-47.4c48.1-37,100.4-67.1,156.3-90.9c66.3-28.2,135.3-45.7,206.9-53.4c18.6-2,37.4-2.1,56-3.2
		c2.8-0.2,5.5-0.7,8.3-1c7.3,0,14.7,0,22,0c1.6,0.3,3.2,0.9,4.8,1c21.5,1.4,43,2.3,64.4,4.2c15.4,1.3,30.8,3,45.9,6.2
		c28.3,6.1,56.6,12.3,84.4,20.4c55.5,16.1,107.9,39.8,157.6,69.2c51.8,30.6,99.1,67.2,141.8,109.7c12.7,12.7,25,25.9,36.6,39.6
		c15,17.8,29.7,36,43.4,54.9c33.5,46.2,60.4,96.1,81.7,149.1c15.1,37.5,27.3,75.9,35.3,115.4c4,19.4,7.1,39,10,58.7
		c2.2,14.3,3.8,28.8,4.9,43.2c0.9,11.2,0.7,22.6,1.2,33.9c0.1,1.9,0.7,3.8,1,5.7c0,8.7,0,17.3,0,26c-0.3,1.2-0.9,2.4-1,3.7
		c-1.1,17.9-1.5,35.8-3.2,53.5c-1.6,17.5-4.3,34.9-6.8,52.3c-4.4,30-11.9,59.4-20.7,88.4c-16.3,53.7-38.7,104.7-66.9,153.2
		c-30,51.6-66.1,98.6-107.6,141.4c-24,24.7-49.8,47.3-77.1,68.3c-31.6,24.3-64.9,45.9-100,64.7c-47.1,25.1-96.4,44.9-147.9,59.1
		c-41.9,11.6-84.5,19.1-127.7,23.1c-15.3,1.4-30.8,1.4-46.2,2.2c-2.3,0.1-4.5,0.7-6.8,1c-8,0-16,0-24,0c-1.6-0.3-3.2-0.9-4.8-1
		c-17.8-1.1-35.7-1.5-53.5-3.2c-17.5-1.6-34.9-4.3-52.3-6.9c-30-4.4-59.4-11.9-88.4-20.7c-53.6-16.2-104.4-38.6-152.8-66.7
		c-50.7-29.5-97.1-64.8-139.3-105.5c-30.5-29.4-58.1-61.5-83-95.8c-31.7-43.6-58.2-90.3-79.4-139.9c-17.5-40.9-31-83.1-40.7-126.7
		C11,851.1,6.3,820.1,3.2,788.9c-1.5-15.3-1.5-30.8-2.2-46.2C0.9,740.8,0.4,738.9,0,737z M1398.8,728.5
		c-2.4-183.2-62.8-339.2-186.1-468.8C1087.7,128.3,932.9,57.6,751.6,50.5c-189.4-7.4-355,54.7-492.4,185.4
		C128,360.7,57.6,515.4,50.5,696.3c-7.4,189,54.4,354.4,184.7,491.8c124.9,131.8,280,202.6,461.5,209.5
		c194.6,7.3,363.3-57.9,502-195.1C1331.2,1071.2,1395.7,910.2,1398.8,728.5z"/>
	<path d="M174.2,720.3c0.2,12.1,2.9,23.8,7.9,34.8c4.3,9.4,9.9,18.3,14.8,27.4c0.9,1.6,1.1,3.5,1.7,5.3c-2-0.2-4.5,0.3-5.8-0.8
		c-7.1-5.8-15.1-11.1-20.7-18.2c-16.2-20.4-24.4-44.2-27.1-70.1c-2.4-23.4-0.3-46.4,4.3-69.2c6.1-30.4,14.4-60.2,25.2-89.2
		c14.6-39.2,33.1-76.4,57.5-110.6c24.8-34.8,49.4-69.7,74.5-104.3c15.3-21.1,31.3-41.8,47.3-62.4c29.3-37.7,65.1-67.5,108.4-87.9
		c14.6-6.9,30.2-11.1,46.3-12.9c16.1-1.8,32.4-2,48.4-4.3c14.8-2.1,29.5-5.3,43.9-9.3c18.7-5.2,37.4-9.3,57-8.6
		c13.2,0.5,26.1,2.2,38.4,6.5c10.2,3.6,19.7,2.5,29.5-0.3c13.1-3.7,26-8.3,39.3-11.4c19.2-4.5,38.8-4.9,58.4-3
		c13.4,1.3,27,2.7,40.2,5.3c25.9,5.2,49.8,15.8,71.9,30.2c5.4,3.5,10.5,5.4,17.1,3.8c16.5-3.8,31,1.9,44.2,11.2
		c13.8,9.7,23.7,22.8,30,37.2c14.2-3.9,27.8-8.6,41.9-11.1c18.5-3.3,36.9-1.4,53.8,7.9c11.8,6.4,21.1,16.1,30,25.9
		c14.7,16.2,27.3,34.1,39.1,52.6c17.3,27.2,29.7,56.6,38.6,87.5c7.1,24.8,14.5,49.5,21.3,74.4c5.1,18.8,8.9,37.9,9.7,57.5
		c0.5,13.8,1.5,27.6,0.7,41.4c-0.9,15.6-5.7,30.7-11.1,45.3c-1.8,4.9-3.7,10-6.7,14.3c-3.7,5.5-3.8,11.5-4.6,17.5
		c-2.4,19.5-9.1,37.7-17.7,55.2c-0.3,0.5-0.4,1.1-0.3,1.8c6.9-8,12.6-16.8,15.6-26.8c4.3-13.9,7.5-28.2,11.2-42.3
		c0.2-0.9,0.5-2,0.9-2.8c0.6-1.1,1.5-1.9,2.3-2.9c0.9,0.8,2.3,1.5,2.6,2.6c1.5,5,3,10.1,3.9,15.2c4,22.8,4.6,45.8,3.3,68.9
		c-1.5,27-4.1,53.9-10.7,80c-3,12.1-1.4,22.3,2.1,33.7c4.2,13.4,6.6,27.6,8.1,41.6c1.5,14.1,2.2,28.6,1,42.7
		c-3.5,41.7-15.2,80.8-42.6,113.5c-12.7,15.2-29,26.3-46.8,35.2c-13.9,6.9-28.2,12.4-43.2,16c-1.2,0.3-2.6,2.2-3,3.7
		c-3.9,13.5-8.1,26.8-16.1,38.5c-13.2,19.5-30.2,34.9-51.8,44.3c-15,6.6-30.5,12.2-46.2,16.5c-14,3.8-28.7,4.1-42.9-0.3
		c-3.4-1-6.4-3.7-9.4-5.8c-0.7-0.4-1.4-1.7-1.2-2.2c0.3-0.7,1.4-1.5,2.2-1.6c2.6-0.2,5.3-0.2,8-0.2c14.8,0.1,25.9-6,33.5-18.9
		c7.3-12.4,13.6-25.3,15.6-39.7c1-7.5,1.3-15.3,0.3-22.9c-1.7-13.5-4.5-27-6.8-40.4c-0.1-0.3-0.3-0.6-0.6-1.1
		c-4.1,0.3-6.1,1.5-6.8,6.6c-3.7,28-11.9,54.5-29.5,77.1c-10.1,12.9-23.3,22-38.4,28c-10,4-20.6,6.4-31,9.4
		c-3.9,1.1-9.4,7.3-9.8,11.8c-0.5,4.8-1,9.6-1,14.4c0.2,31.2-10.7,58.4-29.1,83c-2.6,3.5-6.5,6.1-10.1,8.6c-1.6,1.1-4.2,0.9-6.5,1.3
		c3-6.9,5.7-13.1,8.4-19.3c-0.4-0.2-0.8-0.4-1.2-0.6c-3.9,5.5-8.2,10.8-11.7,16.6c-10.2,16.7-24.3,29.2-40.9,38.9
		c-7.8,4.5-16.1,9.2-24.8,10.9c-6.3,1.3-13.8-1.3-20.2-3.7c-9.7-3.7-19-8.8-29.4-13.8c9,11.3,18.6,20.6,32.2,26.8
		c-7.5,3.8-14.5,7.5-21.5,10.9c-13.6,6.6-27.6,12.2-42.6,15.3c-13.6,2.8-27.1,3.6-40.8,1c-5.1-1-10.3-1.9-15.4-3.2
		c-8.3-2.2-16.8-3.9-24.5-7.3c-7.6-3.3-14.3-8.5-21.4-12.8c-0.9-0.6-1.8-1.2-3.6-2.4c2.6,3.6,4.5,6.2,6.7,9.2
		c-8.6,3.5-16.8,4.6-25.8,3.7c-13-1.4-25-5.1-35.5-12.5c-8-5.7-15-12.9-22.3-19.5c-1.7-1.5-3.1-3.5-4.5-5.1
		c-6.8,3.6-13.3,1.3-18.7-0.7c-24.1-8.6-43.6-22.7-51.8-48.5c-0.5-1.4-0.8-2.9-1.1-4.3c-0.9-4.3-2.8-7.7-6.1-11.1
		c-7-7.2-9.6-16.9-10.4-26.7c-2.1-26.9,6-51.1,20.6-73.4c0.4-0.5,0.6-1.2,1-2.2c-3.7-1.4-7.6-2.6-11.1-4.4
		c-10-5.1-15.2-14.1-18.2-24.3c-1.1-3.6-2.9-4-5.8-3.7c-8.9,0.9-11.3,3-14,11.8c-1.9,6.1-2.6,12.3,0.4,17.9c2.3,4.4,6,8,8.9,11.7
		c-10.6,3.8-32.1-7.7-40.7-22.7c-9-15.8-5.4-32.3-2.8-49.2c-9.1,5.9-19.3,7.9-29.4,8c-13.3,0.1-26.6-2.1-38.8-8
		c-6.5-3.1-12.5-7.1-18.8-10.8c-2.5-1.4-3.2-3.2-0.7-5.5c5.6,2,9.9-0.8,13.5-4.5c10-10.2,16.2-23.2,18.7-39.2
		c-2.8,2.8-4.7,5.3-7.2,7c-12.9,9.1-26.9,13-42.9,10.8c-19.6-2.7-36.4-11.2-52.2-22.7c-5.9-4.3-12.1-7.9-15.9-14.3
		c-0.6-1.1-1.2-2.2-1.2-3.9c3,2,6,4.2,9.1,6.1c7.9,4.8,16,8.7,25.7,8.8c12.3,0,22.3-5.1,31.4-12.5c14-11.4,18.4-27.1,20.2-44.2
		c2.2-21,0.2-41.7-5.3-62c-4-14.9-9.5-29.4-14.1-44.2c-1.6-5.3-2.5-10.9-3.7-16.4c-0.6-2.8-1.6-4.8-4.5-6.3
		c-17.6-9.1-29.9-23.8-40.5-40.1C190.4,764,181.3,742.7,174.2,720.3z M725.4,715.8c0.1,0.4,0.2,0.8,0.4,1.1
		c27.1,4.5,54.1,9,81.2,13.5c-0.9,1.5-1.8,2.3-2.6,2.2c-11.2-1.3-22.4-2.7-34-4.1c-1.9,5.8-7.2,9-12.9,11c-6.8,2.3-14.1,3-19.2-3.2
		c-2.6-3.2-5-5-10-5.1c1.4,5.6,1.2,12.1,4.4,15.9c3.1,3.6,9.5,4.4,14.4,6.4c-15.8,3.6-35.3-6.6-37.8-24.4c-6.5,1-13,1.8-19.4,3
		c-6.6,1.3-13,3.2-19.6,4.5c-10.5,2.1-21,3.1-30.8-2.8c-1.9-1.1-4.2-1.5-5.1-1.9c-1.3,2.8-1.6,5.3-2.7,5.8
		c-5.1,2.1-10.4,4.2-15.9,1.2c-3-1.7-6.1-3.2-9.1-4.9c-6-3.5-11.9-6.9-18.5-9.6c-5.8-2.4-11.8-6.9-13.5-14.2
		c-2.1-8.6-4.5-17.2-6.1-25.9c-0.6-3.3,0.1-7.1,1-10.4c0.4-1.3,3.1-2,4.7-2.9c-0.2,1.7,0.1,3.8-0.8,5.2c-5,8-3.2,16.7,4.4,22.4
		c6.8,5,14.1,9.4,18,17.4c2.7,5.4,8.8,8,17,6.2c-3.8-3.3-6.7-6.3-10-8.7c-5.2-3.7-11-6.6-16.1-10.5c-4-3-3.3-6.8,1.5-8.6
		c4.2-1.6,8.7-2.5,13.2-3c8.2-0.9,16.7-0.2,24.6-2.2c13.3-3.2,25.3-10,37-17c13.9-8.3,27.2-17.9,43.8-20.7c8.4-1.4,16.8-3.1,24-4.4
		c-2.2-0.7-5.9-1.8-9.5-2.9c-0.1-0.7-0.2-1.3-0.3-2c9.8-3.3,19.5-7.3,29.6-9.6c5.6-1.3,12.2-0.9,17.8,0.6
		c18.6,5.1,35.1,14.8,51.2,25.2c5.8,3.8,11.4,7.9,17.5,12.1c-4.9-13.3-16.6-19.7-25.9-28.6c1.5-0.2,2.7,0,3.5,0.6
		c5.8,4.4,11.9,8.5,17.1,13.6c12.6,12.2,26.2,23.6,34.8,39.3c1.8,3.3,3.4,2.9,6.3,1.6c17.6-8.1,35.1-16.3,53-23.8
		c5.4-2.2,7.7-4.8,8.6-10.6c0.6-4.1-0.8-5.3-3.5-7.3c-13.7-10.1-27.6-19.9-40.7-30.8c-11.6-9.6-22-20.6-33-30.9
		c-12.9-11.9-23.3-25.3-29.3-42.3c-13.4-37.8-23.1-76.3-24.1-116.7c-0.2-7,0.2-14.2-4.2-21c-13-20.1-24.9-40.8-33.6-63.3
		c-1.5-4-1.2-5.7,3.1-7.2c12-4,24.3-4.4,36.8-3.9c1.2,0,2.4,1.3,4.6,2.5c-3,0.3-4.5,0.4-6.1,0.6c2.7,2.3,5.8,4.7,8.9,4.6
		c7.2,0,14.4-1,21.6-1.9c15.7-2,31.4-1.2,46.9,1.8c10.9,2.1,21.7,5.1,32.2,8.6c8.4,2.8,16.9,6.2,24.2,11
		c18.3,12.1,35.1,26.3,49,43.5c13.3,16.4,27,32.6,39.6,49.6c20.8,28.1,37.1,59,53.7,89.7c1.4,2.6,2.9,5.2,4.4,7.8
		c1.5,2.5,2.9,5,5,8.6c0-1.9,0.1-2.5,0-2.9c-13.3-36.7-27.4-73.1-47.4-106.8c-13.5-22.7-28.4-44.4-47.2-63.1
		c-7.2-7.2-14.9-13.8-21.9-21.1c-7.8-8.1-16-15.3-26.6-19.4c-2.8-1.1-5.5-2.1-8.1-3.5c-12.9-7-26.6-11.9-40.7-15.8
		c-8.2-2.3-16.5-4.4-24.6-7c-5.4-1.7-5.4-3-1.7-7c12.6-13.4,27.4-16.3,45-8.3c18.4,8.3,32.7,21.5,45.1,37.1
		c13.9-8.2,37-9.1,52.2-1.7c7.1,3.4,14.2,6.7,21,10.7c20.7,12.1,39.6,26.5,55.1,45c3.5,4.2,7.3,8.3,11.1,12.7
		c2.8-12.6,3-12.7-3.7-21.9c-12-16.3-24.4-32.3-39.1-46.2c-9.9-9.3-19.5-18.9-29.1-28.5c-3.6-3.6-3.4-5.2,1-7.4
		c12.4-6.3,25.8-8.6,39.4-7c17.9,2.2,34.7,8.5,50.3,17.7c1,0.6,2.3,0.8,4,1.4c0-2.8-0.4-5,0.1-7.1c4.2-20.1,8.2-40.3,12.9-60.2
		c1.3-5.4,0.2-8.8-3.6-12.2c-4.2-3.7-8.2-7.8-12.4-11.4c-11-9.5-23.5-15.3-38.4-15.7c-17.8-0.4-34.4,5.1-51.2,9.4
		c-8.4,2.1-8.2,2.5-12.2-4.7c-8-14.2-19-25.4-33.4-33.1c-9.1-4.9-18.7-7.9-29.4-6.2c5.8,7.1,13.4,10.1,21.4,12.7
		c13.7,4.6,23.4,14,29.3,27c4.1,9.1,2.3,11.6-7.6,12.9c-10.1,1.3-10,1.2-15.9-8.3c-15.4-24.7-34-45.6-61.8-57.3
		c-30.8-13.1-61.8-24.5-95.8-25.7c-20.8-0.7-41.5-2-62,2.3c-3.5,0.7-7.1,1.4-10.6,2.3c-3.3,0.8-6.5,2-10.4,3.2
		c13.4,7.2,26.4,12.8,40.9,14.8c-5.5,1.3-10.9,2.7-16.2,2.5c-12.3-0.4-23.4-5-33.7-11.5c-4.4-2.7-8.3-1.4-13.4-0.2
		c3,1.8,5.2,3,7.3,4.4c10.7,7.5,22.9,10.2,35.6,11.7c10.9,1.3,22.1,1.9,32.7,4.4c24.9,5.9,47.6,16.8,68.4,31.7
		c7,5,13.5,10.8,20.2,16.2c0.4-0.2,0.7-0.4,1.1-0.6c-3.7-5.9-6.8-12.3-11.2-17.5c-11.4-13.6-26.9-21.6-42.7-29
		c-6.5-3-13.3-5.2-20-7.8c3.5-0.1,7,0.1,10.3,0.9c20.5,4.8,39.7,12.6,56.5,25.5c11.5,8.9,21.3,19.3,22.1,34.7
		c0.5,10-0.7,20-0.9,30.1c-0.3,14.7-9.1,23.1-21.4,28c-7.2,2.9-15.1,5.1-22.8,5.8c-13,1.1-25.7-1.4-34.4-12.2
		c-4-4.9-6.2-11.2-9.1-16.8c-11.1-21.5-24.7-41.3-39.4-60.6c-17.5-22.9-40.7-37.1-67.3-45.8c-12.5-4.1-25.9-6.2-39-8
		c-10-1.4-20.3-1.8-30.3-0.8c-11.4,1.1-22.6,4.2-33.9,6.6c-7.6,1.6-15.1,3.4-22.3,5.1c10.2,3.6,20.2,8.6,30.7,10.6
		c17.9,3.4,36.1,5.2,54.2,7.4c13.3,1.6,26.7,1.9,39.8,4.3c25.2,4.6,47.6,15.5,65,34.5c16.5,18.1,28.8,39.1,36.7,62.4
		c3.5,10.3,2,20.4-3.2,29.8c-3.4,6.2-10,8.1-16.3,9.9c-9.1,2.6-18.3,4.9-27.6,6.9c-7.6,1.6-10.7,0.2-13.3-4.4
		c-6.8-12.2-13.3-24.7-20.6-36.6c-15.6-25.2-34.2-47.9-56.5-67.8c-15.6-13.9-32.9-25-52-33c-27.4-11.3-56.3-15.5-85.9-14.1
		c-8.9,0.4-17.8,1.7-26.6,3.1c-2,0.3-3.7,2.5-5.5,3.8c1.6,1.4,2.9,3.3,4.8,4.1c11,4.9,22.9,6.1,34.7,6.8c16.8,1.1,33.4,3.5,49.6,7.9
		c34.7,9.3,65.1,25.7,88.8,53.5c17.8,20.9,30.7,44,34,71.7c1,8.1-3.3,16.6-9.4,17.9c-11.4,2.5-22.8,5-34.1,7.7
		c-8,1.9-15.3,2-22.5-3.2c-16.6-12.2-33.5-23.9-50.5-35.6c-16.9-11.6-34.8-21.1-53.7-29c-16.9-7.1-34.3-12.2-52.4-14.7
		c-8.3-1.2-16.8-1.9-25.2-2c-6.6-0.1-13.1,1.3-19.7,1.8c-20.4,1.6-39.6,7.3-58.1,15.9c-18.7,8.7-34.5,21.5-49,35.7
		c-6,5.9-11.9,12.2-16.1,19.4c-10.5,17.7-19.9,36-29.8,54.1c-17.8,32.7-33.2,66.5-44.8,102c-3.8,11.6-6.7,23.5-10,35.3
		c0.5,0.2,0.9,0.3,1.4,0.5c0.4-0.9,1-1.8,1.3-2.7c1.3-4.4,2.4-8.9,3.7-13.3c10.2-33.7,24.5-65.7,41.6-96.4
		c14-25,30.2-48.5,48.9-70.2c14.6-16.9,31-31.7,49.1-44.7c6.8-4.8,14.2-8.7,21.4-13c0.4,0.5,0.7,1,1.1,1.5c-0.7,0.5-1.4,0.9-2.1,1.4
		c-13.6,9.3-23.7,21.9-30.7,36.4c-8.1,16.6-14.9,33.7-22.2,50.7c-1.8,4.2-3.5,8.5-5.2,12.8c19.2-21.9,37.7-44.1,64.2-59
		c-5.1,6.6-10.5,11.8-13.9,18.2c-12.7,24.1-24.8,48.5-37,72.9c-1.5,3-2.7,6.1-4.1,9.1c83.1-124.2,212.7-115.2,287.4-80.7
		c-5.8,1.2-10.3,2.4-14.8,3.2c-11.5,1.9-23.2,2.9-34.4,5.7c-17.1,4.4-33.8,10.3-50.8,15.1c-35.3,9.9-67.2,25.5-91.3,54
		c-7.6,9.1-16.2,18.4-20.3,29.1c-11.3,29.4-21,59.4-30.4,89.5c-6.3,20.2-10.4,41.1-20.2,60.2c-5.2,10.1-10.4,20.2-12.1,31.7
		c-0.3,1.8,0.2,4.5,1.4,5.4c6.4,5.1,13.2,9.7,19.8,14.5c0-5-0.1-9.5,0.1-13.9c0.1-2.9,1.5-5.5,4.8-5.1c3.2,0.4,6.7,1,9.2,2.7
		c15.1,10.7,30.1,21.5,44.8,32.8c13,10,28,8.5,42.7,8.5c4.5,0,7.4,1,10.3,4.3c6.2,6.9,8.3,15.7,11,24.1c3.8,11.6,3.8,11.7,16.3,11.5
		c1.9,0,4.7-0.6,5.4-1.9c1.3-2.4,2.3-5.2-0.5-8.1c-3.9-4-6.9-8.8-6.9-16.1c5.2,5.5,9.3,10.7,14.3,14.9c4.9,4.1,10.7,7.1,16.1,10.6
		c-7.4,1.7-14.8,2.5-22.3,2.8c-7.7,0.3-15.4,0.1-23.1,0.1c-1.2,3.7,4.2,8.2-1.2,10.8c-3.7,1.8-7.9,2.7-11.5,3.9
		c-0.3,1.1-0.6,2.1-0.9,3.1c-1-0.3-2.1-0.4-2.8-1c-2-1.7-3.9-3.7-5.9-5.6c-6.3,9-10.3,11.8-25.8,8c2,6.3,11.4,8.5,18,5
		c1.6-0.9,3.6-1.1,5.4-1.6c0.1,0.5,0.3,1.1,0.4,1.6c-5.5,4.6-12.4,6-19.1,5c-9.6-1.4-16.9-6.4-17.2-18.9c-4,2.9-7.3,4.7-9.8,7.3
		c-3.7,4-2.3,7.2,3.1,8.2c2.6,0.5,5.1,1.2,7.7,1.8c-0.1,0.6-0.3,1.2-0.4,1.8c-10.3-1.9-20.7-3.9-31-5.8c-0.1-0.8-0.2-1.7-0.4-2.5
		c12.3-5.4,24.6-10.9,36.7-16.2c-1-0.3-2.5-0.9-4.1-1.1c-17.5-2.7-35.1-5.3-52.7-8c-5-0.8-10.6,2.9-9.9,6.9
		c2.2,12.4,4.8,24.7,11.5,35.6c3.2,5.3,6.3,10.7,9.4,16c-0.5,0.4-0.9,0.9-1.4,1.3c-14-1.3-18.9-12.8-24.6-25c0,2.5-0.2,3.7,0,4.8
		c2.1,9.9,4.2,19.7,6.3,29.5c1,4.7,2.3,9.3,2.6,14.1c0.3,4.2-3.6,5.1-6.8,5.6c-1.1,0.2-3.3-1.4-3.7-2.7c-1.7-5.1-2.6-10.5-4.4-15.5
		c-4.9-13.5-9.3-27.2-15.4-40c-4.4-9.3-10.7-17.7-23.2-18c-5.1-0.1-11.3-1-12.2-8.3c-0.5-3.4-0.9-6.9-1.1-10.4
		c-0.5-8.2-0.9-16.3-1.3-24.5c-2.4,5.9-7.8,11-5.6,18.7c-3.2,2.3-7.4,2.8-11.1,0.8c-3.6-2-1.8-5.8-1.1-9
		c2.8-12.6,8.3-24.2,15.7-34.5c7.5-10.5,15.7-20.6,29-24.5c1.4-0.4,2.4-2.4,4-4.1c-1.7-0.3-2.2-0.6-2.6-0.4
		c-1.1,0.3-2.2,0.8-3.2,1.3c-10.5,4.2-18.8,11-25.5,20.3c-9.1,12.5-17,25.6-20.9,40.7c-3.2,12.4-1.6,14.6,10.4,15.6
		c0.3,0,0.5,0.3,1,0.6c0,0.8-0.1,1.8,0,2.8c0.8,6.7,1.5,13.4,2.6,20c0.2,1.3,2,2.3,3.1,3.4c0.9-1.1,1.9-2.1,2.7-3.2
		c2-2.7,4.2-4.8,7.9-3.1c1.2,0.5,2.4,1,3.7,1.3c6.3,1.1,7.5,2.9,8.1,9.5c1.1,10.8,1.7,21.7,4.1,32.3c6.3,27.1,20,49.4,43.9,64.6
		c14.8,9.4,30.6,14.6,48.3,13.6c7.6-0.4,15.2-0.9,22.9-1.3c-4.5,2.1-9.3,3.4-14,4.8c-15.7,4.6-31.8,5.1-47.4,1
		c-13.2-3.5-25.1-10.8-35.1-20.4c-12.9-12.3-21.2-27.5-27.6-43.8c-4.9-12.5-6.9-25.7-7.1-39.2c0-2.1-0.6-4.1-1.1-7.2
		c-3,3.9-2.8,19.4,0.2,31.5c9.7,39.6,29.4,70.8,71,82.5c-0.8,2.3-1.8,4-2,5.9c-1.4,13.4-1.1,26.9,3.7,39.6c5.1,13.4,12.2,26,17,39.5
		c6.8,19.4,12.3,39.2,18.1,58.9c1.4,4.9-5.4,15.6-10.4,17.1c-2.1,0.6-4.3,1.9-6.3,1.6c-12.7-2-20.7-10-24.5-21.8
		c-2-6.1-3.5-12.9,4.3-17.3c1.2-0.7,2-4.1,1.4-5.5c-0.7-1.5-3.2-2.7-5.1-3c-5.6-0.8-9.3,2.5-12.3,6.8c-12.9,18.9-15,39.6-11.4,61.6
		c2.9,17.9,12,31.9,25.1,43.7c8.9,8,19.5,12.9,31.2,14.8c7.3,1.2,14.9,1.1,22.4,1c3.9,0,5.3,1.8,5.8,5.1c2.3,14,4.6,27.9,7.2,41.9
		c1.1,5.8,2.9,11.5,4.7,18.5c1.1-2.6,1.6-3.8,2.2-5c4.1-7.7,7.9-15.6,12.5-23c3.9-6.3,9.8-5.9,13.2,0.6c2.3,4.4,4.2,9,6.2,13.5
		c5.6,12,10.6,24.3,19.9,34.1c1.1,1.2,3.2,2.6,4.4,2.2c10.8-3.3,21.5-6.9,32.2-10.4c3.7-1.2,4.4-3.4,3.1-7.1
		c-1.5-4.3-2.7-8.9-3.3-13.4c-0.7-6.4-5.1-9.6-9.5-13.2c-1.5,1.6-2.7,2.8-4.6,4.9c-0.8-2.5-2-4.3-2-6.1c0.3-12.9,5.8-23.9,13.2-34.1
		c1.9-2.5,2.9-5.8,7.2-6.6c17.2-3.4,34.4-3,52.8-1.3c-2.4,0.3-3.7,0.5-4.9,0.7c6.5,1.7,13,3.1,19.2,5.2c1.5,0.5,2.9,3,3.2,4.8
		c0.5,3.4,0.1,7,0.1,10.4c2.2-3.3,3.4-6.7,5.2-9.8c1.6-2.7,0.6-4-1.8-4.8c-5.3-1.9-10.7-3.7-16.4-5.7c5.2-2.7,10.1-0.9,14.7,0.5
		c5.1,1.6,9.9,4.5,15,6.2c6.5,2.1,7.1,2.3,6.2,8.2c-2.9,17.9-5.9,35.7-8.8,53.6c-0.7,4.1-0.6,7.6,4.9,8.3c2.1,0.3,4,1.6,6.1,2
		c15.4,3.4,30.7,7,46.2,9.7c4.3,0.7,9.8,2.6,13.5-2.9c6.7-10,14.4-19.4,20.4-29.7c7.5-13,14-26.5,20.2-40.1c2.9-6.4,6-7.8,10.6-2.2
		c6.3,7.6,12.6,15.4,17.8,23.8c5.6,9,10,18.7,15.4,29.1c5.7-15,11.6-29.4,16.7-44.1c3.2-9.1,5.1-18.6,7.9-27.9
		c1.6-5.4,4.8-7,9.6-4.4c5.6,3,11.1,6.6,15.8,10.9c13.8,12.6,23.3,28.2,30.8,45.1c0.9,2,2.1,3.8,3.5,6.3c9.5-16.9,18.8-33,27.7-49.4
		c13.8-25.5,28-50.8,40.7-76.9c16.2-33,20.8-68.9,23-105.1c0.8-12.9,0.8-25.9,1-38.9c0.2-9.1-0.1-18.3,0.1-27.4
		c0.1-2.9,1.2-5.8,1.8-8.7c0.5,0.1,1,0.2,1.5,0.3c1,13.4,2,26.8,3,40c9.2-5.7,17.5-10.9,26-16c10.2-6.1,21.2-11.3,30.8-18.4
		c11.7-8.6,22.7-18.4,33.4-28.3c5.9-5.4,12.8-11.4,15.3-18.5c5.7-16,9.5-32.8,13-49.5c2.5-12.1,3.9-24.5,4.7-36.8
		c0.7-10.7,1.4-21.8-0.5-32.3c-4-22-15.8-40.4-30.8-56.7c-3.2-3.4-6.9-7-11.2-8.6c-4.6-1.7-10.1-1.4-15.2-1.3
		c-7.9,0-15.8,1.2-23.7,0.7c-7.1-0.4-11.5,2.3-13.9,8.6c-5.2,13.7-11.4,27.1-15.2,41.1c-6.9,25.4-12.3,51.1-18.4,76.7
		c-0.4,1.7-1.3,4-2.6,4.5c-4.9,1.8-9.9,3.8-14.9,4.1c-20.1,1.2-39.8-1.6-59-8.2c-5-1.7-4.9-2.2-2.5-6.9c7.4-14.4,14.5-28.9,22.1-44
		c-26.4,9.7-49.8,23.9-73.7,37.3c-0.3,5.5,0,11.5-1.1,17.3c-4.2,21.8-11.7,42.1-26.8,59.1c-9,10.2-18.9,19.2-31.6,24.2
		c-10.8,4.2-22,7.6-33.3,10c-8.5,1.8-17.4,2-26.2,2c-8.6,0-17.1-1.6-25.7-1.6c-15.9-0.1-31.2-3.1-45.6-9.3
		c-17.6-7.5-31-20-39.1-37.7c-3.3-7.1-6.2-14.4-9.5-22.2c-5.4,3.1-10.9,2-16.5,0.1c-15.1-5.4-30.7-4.1-46.3-3.9
		c-5.1,0.1-10.1,1.1-15.1,2.1c-1,0.2-2.1,1.5-2.5,2.6c-6.4,16.7-12.6,33.5-19,50.3c-0.8,2.2-2.2,4.2-3.3,6.3
		c-0.3-0.1-0.6-0.3-0.9-0.4c1.3-3.8,2.6-7.6,4.4-12.7c-13.1,11-24.4,22.9-42.4,22.1c6.4-6.4,13.9-11.6,20.2-18
		c6.4-6.6,12.3-13.9,17.2-21.7c5-7.9,8.9-16.6,12.6-25.2c3.6-8.3,6.4-17,9.6-25.5c-0.5-0.4-1-0.7-1.5-1.1c-1.8,1.4-3.4,3.3-5.4,3.9
		c-2.2,0.7-4.7,0.2-7.4,0.2c2.2-1.9,3.7-3.1,5.2-4.4c1.8-1.4,3.3-3.5,5.3-4.1c15.9-4.5,32.2-6.3,48.6-4.9c12.1,1.1,24,3.9,34,11.6
		c2.7,2.1,4.8,5.7,7.8,6.8c5.7,2,8.1,6.5,10.7,11.1c3.2,5.6,6.2,11.3,9.1,17c8.8,17.4,21.3,31.3,39.9,38.1
		c10.7,3.9,21.9,6.4,33.1,9.1c7,1.7,14.3,4,21.3,3.6c11.2-0.7,22.6-2.5,33.3-5.8c9.4-2.9,18.5-7.7,27-12.8
		c11.1-6.7,17.2-18.2,23.9-28.8c10-15.7,15.8-32.8,14.6-51.5c-0.6-9.4-3.2-18.7-5.1-28.1c-0.2-1.2-1.6-2.5-2.8-3.1
		c-12.4-6.6-24.7-13.2-37.2-19.5c-6.1-3.1-12.7-4.4-19.5-1.7c-6.7,2.7-13.5,5.2-20,8.2C737.8,709.3,731.7,712.7,725.4,715.8z
		 M281.7,720.1c-0.6,0.1-1.2,0.2-1.7,0.3c0,1.8,0.1,3.6,0,5.3c-1.2,24,0.5,47.8,3.9,71.5c3.6,25.1,8.7,49.8,22.4,71.7
		c3.8,6.1,8.5,11.6,12.8,17.4c0.4-0.3,0.9-0.6,1.3-0.9c-0.3-0.7-0.5-1.5-0.8-2.2c-5.9-12.9-12.4-25.5-17.4-38.6
		c-6.8-17.8-9.9-36.6-12.2-55.5c-2.4-20.8-4.6-41.7-7-62.5C282.8,724.3,282.1,722.2,281.7,720.1z M974.6,623.4
		c-22.1-46-43.8-91.4-65.5-136.7C925.3,534.7,943.8,581.6,974.6,623.4z M1150.8,990.6c13.6-18.5,18.6-67.3,12.8-85.3
		C1159.2,934.5,1155,962.6,1150.8,990.6z"/>
	<path class="st0" d="M974.6,623.4c-30.8-41.7-49.3-88.6-65.5-136.7C930.8,532,952.5,577.3,974.6,623.4z"/>
	<path d="M658.2,945.2c9-1.2,16.1,3.4,22.8,7.5c21.8,13.6,41.5,29.9,60.6,47.2c11.7,10.5,25.5,19,39.3,26.6
		c13.4,7.4,24.5,4.1,35.8-6.5c6.7-6.3,12.3-13,12.9-22.6c0.2-2.7,0.2-5.7-0.6-8.2c-4-12-10.7-22.2-21.2-29.8
		c10.1,2.2,18.5,7.8,24.3,15.9c5.6,7.8,10.7,16.5,13.4,25.6c3.8,12.6,1.7,25.6-3.1,37.9c-6,15.4-12.6,30.6-25.6,41.8
		c-9.3,8.1-19.3,15.3-31.5,17.8c-12.1,2.5-24.3,2.5-36.6-1.1c-18.3-5.3-34.4-14.1-49.8-25.4c-8.4-6.1-19.3-7.1-30-5.7
		c-10.1,1.3-20.2,2.7-30.4,3.7c-15.3,1.5-30.6,3-46,3.7c-14.5,0.7-29,0.4-43.5,0.3c-7,0-13.9-0.4-20.9-1.1c-2.5-0.3-4.8-2.1-7.3-3.1
		c-1-0.4-2.2-0.9-3.2-0.7c-8.6,1.7-17.4,3.1-25.8,5.7c-3.2,1-7.7,5-7.6,7.6c0.2,7.6-3.7,11.7-9.5,14.5c-5.7,2.8-11.6,5.5-17.7,7
		c-17.5,4.1-34.5,2.2-50.2-6.9c-9.7-5.6-16.5-14.3-21.9-23.9c-13.5-24.1-14.2-49-3.6-74.3c2.2-5.2,4.8-10.7,11-12.7
		c1.9-0.6,3.9-0.7,6.5-1.1c-2.8,4.4-5.5,7.6-6.9,11.2c-3.6,9,1.9,24.5,10.6,30.9c2.4,1.8,4.8,3.6,7.4,4.9c11.6,5.5,21.8,2.4,30-8
		c13.4-17.2,27-34.3,41.2-51c3.9-4.6,8.1-10.5,15.8-9.9c0.6,0,1.2,0.2,1.9,0.4c-1.9,2.5-3.6,4.7-6,7.8c7.1,0.8,13,4.5,18.1-1.7
		c0.5-0.6,1.2-1.2,2-1.4c1-0.3,2-0.3,3.1-0.4c0,1,0.2,2.1-0.1,3c-1.2,4.1-2.6,8.2-4.1,12.9c3.1,0,4.8,0,6.5,0
		c-0.6-8.3,2.2-12.5,9.9-14.3c-7.8-2.9-14.9-5.5-22.1-8.3c-4.8-1.9-10-3.2-14.3-6c-5.6-3.6-10.7-8.1-15.7-12.5
		c-7.9-6.9-9.2-16-8.2-25.8c1.7-16.1,9-30.1,16.9-43.9c-2.4,6.4-4.3,13-7.2,19.2c-5.3,11.3-5.6,23-3.7,34.9c0.2,1.3,1.2,2.7,2.3,3.7
		c7.7,6.9,15.7,13.6,23.3,20.6c2.9,2.7,5.6,5.1,9.8,5.6c13,1.5,25.9,4.1,38.8,0.1c5.1-1.6,10.1-3.5,15.6-5.5
		c-1.7-1.4-3.3-2.7-5.5-4.5c2.8-1.9,5-4,7.5-5.1c11.8-5,23.4-10.6,35.6-14.2c6.2-1.8,13-4.7,20.1-2.1c1.2,0.4,3.7-1.3,4.9-2.6
		c15-16.7,14.7-35.9,0.2-52.9c-1-1.2-2.7-1.8-3.5-3.3c5.9,0.4,9.1,4.5,11.1,8.7c3.8,8,6.8,16.4,9.5,24.8c0.7,2.4-0.4,5.6-1.3,8.1
		c-3.1,8.2-7.8,15.4-14.6,21c-4.3,3.5-9.1,6.4-14.6,8.7c2.6-3.1,5.2-6.1,7.8-9.2c-12.7-0.7-24,1.9-34.1,9.1c5.1,6,10.8,8.7,18.3,5.6
		c0.9-0.4,2.3,0.5,3.4,0.7c-0.4,1.2-0.4,2.5-1.1,3.4c-3.5,4.5-7.1,8.8-10.8,13.1c1.8,1.2,5.2,1.3,8.6-0.7c8-4.6,16.2-8.8,23.8-14
		c5.1-3.5,9.4-0.7,13.1,1.1c9.4,4.7,18.3,10.4,27.3,15.9c3.1,1.9,6,4.2,9.2,5.8c1.3,0.6,3.2,0,4.8,0c-0.4-1.4-0.4-3.2-1.2-4.2
		c-6.1-6.5-12.1-13.2-21-16.2c-1-0.4-2-1.1-2.9-1.8C658.2,946.6,658.3,946.2,658.2,945.2z"/>
	<path d="M982.4,265.5c7.5-10.8,18-16.2,28.7-20.8c18.6-8,38.1-12.8,58.5-11.5c7.8,0.5,15.4,2.7,23.1,4.6c1.8,0.4,3.8,2.2,4.8,3.9
		c7.2,12,8,25.3,7.2,38.8c-0.1,1.2-2.5,2.9-4.1,3.4c-11.4,3.7-23.2,3.5-34.8,1.8c-16.6-2.4-33-5.5-49.5-8.8
		c-9-1.8-17.8-4.5-26.6-7.1C987.4,269,985.3,267.1,982.4,265.5z"/>
	<path d="M868.4,157.3c6.9,2.3,14.1,4,20.7,7c18,8.1,35.7,16.9,51.8,28.6c13.8,10.1,24.9,22.2,32.1,37.7c0.3,0.6,0.6,1.2,0.8,1.8
		c3.4,8.5,3,11.1-4.5,16.4c-11.8,8.3-25.1,12.6-39.6,13.1c-8.2,0.3-16.3-8-15.8-15.6c0.7-10.9,0.3-21.9,0.1-32.8
		c-0.1-5.6,0.1-11.4-1.2-16.9c-1-4.4-3.3-9-6.3-12.5c-8.9-10.7-20.4-18.1-33.3-23.3c-1.8-0.7-3.5-1.6-5.2-2.4
		C868.1,158.1,868.3,157.7,868.4,157.3z"/>
	<path d="M1076.5,713.6c-0.5-2-1-4-1.6-6c-3.3-11.1-10.1-20-18.6-27.7c-4.6-4.2-9.9-3.2-12.8,2c-3.7,6.7-7,13.5-10.2,19.8
		c16.3,10.8,28.3,24.4,35.5,41.8c2.5-7.6,5.2-15.9,8-24.3c0.6,0.2,1.2,0.4,1.9,0.6c-3.3,11.9-6.6,23.8-10.2,36.3
		c-6.7-21.7-20.3-36.8-36.8-51.3c-3.1,8.1-6.1,15.2-8.4,22.5c-0.5,1.7,0.6,4.4,1.7,6.1c5.6,8.8,11.7,17.2,17,26.1
		c5.7,9.6,4.5,20,2.3,30.4c-0.1,0.6-0.2,1.3-0.3,1.9c0,0.2,0.1,0.3,0.4,1.4c8.3-7.8,16.3-15.3,24.2-22.8c0.3,0,0.5,0.1,0.8,0.1
		c-1.6,3.2-2.4,7.2-4.8,9.6c-8.4,8.2-17.3,15.8-26,23.6c-0.7,0.6-1.8,0.7-2.8,1.2c4.8-11.7,10.7-23.3,5.1-35.6
		c-3.9-8.8-9.2-17.3-15.2-24.9c-7.3-9.2-10-18.3-4.6-29.2c5.2-10.6,10.2-21.4,15-32.2c5.7-12.9,21.3-10.7,27.6-2.1
		c6.2,8.5,11.4,17.4,13.6,27.8c0.3,1.6,0.4,3.2,0.6,4.8C1077.4,713.5,1077,713.5,1076.5,713.6z"/>
	<path d="M641,863c3.2-4.6,7.1-4.5,11-2.1c9,5.4,17.8,11.2,26.9,16.6c18.4,10.9,37.3,20.6,58.6,24.6c7.2,1.4,14.5,2.6,21.7,4
		c1.4,0.3,2.7,1.2,4.9,2.3c-5.8,4.1-11.5,3.4-16.2,2.3c-17.6-4.2-35.3-8.7-52.6-14.1c-12.9-4.1-24.7-10.8-35.5-19.1
		c-5.7-4.4-11.7-8.4-17.6-12.6C641.9,864.5,641.6,863.8,641,863z"/>
	<path d="M472.7,876.7c-2.1,3.5-3.4,7.3-5.9,9.7c-8.6,8.2-17.1,16.6-26.7,23.5c-6.3,4.6-14.3,7.1-21.7,10c-1.7,0.7-4.3-1.1-6.5-1.7
		c1.3-1.8,2.2-4.3,4-5.4c9.8-6,20-11.3,29.5-17.7c6.2-4.2,11.5-9.7,16.9-14.9C465.8,876.8,467.1,875.9,472.7,876.7z"/>
	<path d="M861.3,965.8c1-9.9,1.3-20,3.1-29.8c4.8-26.9,13.6-52.5,26.6-76.6c6.3-11.8,14.6-22,23.8-31.5c2.8-2.9,6-3.7,10-1.7
		c-5,5.2-9.3,10.8-14.7,14.9c-11.3,8.6-17.8,20.3-23.3,32.7c-10.5,23.7-18,48.4-20.9,74.3c-0.7,6-1.7,11.9-2.5,17.9
		C862.7,965.8,862,965.8,861.3,965.8z"/>
	<path d="M705.5,813.5c-25.1-1.8-42.6-15-56.4-35.4c1.6,0,3.4-0.4,4.9,0.1c7.8,2.7,15.3,6.2,20.9,12.5
		C683.5,800.1,693.5,807.6,705.5,813.5z"/>
	<path d="M513.2,744.9c8.5-8.7,18.3-12.2,28.5-13.7c22-3.1,43.7-1,64.5,6.9c7.2,2.7,14.1,6.3,21,9.7c4.5,2.2,5.6,7.2,3.4,13.5
		c-1.8,5.3-6.7,8-13.3,6.8c1.9-1.6,3.4-2.6,4.6-3.9c5-5.3,2.7-14-4.5-18.2c-14.2-8.3-29.8-11.6-46-13.2c-15.3-1.5-30.1,0.9-44.6,5.2
		C522.6,739.3,518.6,742.2,513.2,744.9z"/>
	<path d="M521,1125.6c-17.1,2.7-36.2-12.5-34.9-30.2c0.1-1.3,1.4-2.6,2.1-3.8c1,1,2.7,1.8,3,3c3,16,13.7,24.6,28.1,29.7
		C519.7,1124.4,520.1,1124.8,521,1125.6z"/>
	<path d="M685.2,1123.2c1.7-0.4,3.4-1.2,5.1-1.1c17.2,0.8,29.9-6.3,37.9-21.5c0.2-0.4,0.6-0.8,1-1.1c0.2-0.2,0.6-0.1,1.2-0.2
		c2.2,6.4-0.8,11.1-5,15.4c-5.7,5.8-13,9-20.9,10c-6.2,0.8-12.7,0.2-19,0.2C685.4,1124.3,685.3,1123.8,685.2,1123.2z"/>
	<path d="M437.7,804.3c1.4,0.3,2.8,0.4,4,1c6.9,3.1,13.7,6.4,20.6,9.5c5,2.2,9.9,1.2,14.8-0.8c8.7-3.5,15.1-9.8,21.3-17.9
		C486.1,820.7,461.5,827.4,437.7,804.3z"/>
	<path d="M603.4,752.3c1.9-0.3,4-1.3,5.8-0.9c3.3,0.6,6.5,1.9,9.8,3c3.2,1.1,4,4,2.6,6.3c-0.8,1.4-4.4,2.4-5.8,1.7
		c-4.5-2.2-8.5-5.3-12.6-8.1C603.1,753.7,603.3,753,603.4,752.3z"/>
	<path d="M573.8,724c-4.7,0.4-9.5,0.8-14.2,1.2c-0.1-0.5-0.2-0.9-0.3-1.4c1.7-0.7,3.4-1.4,5.4-2.2c-3.4-4.3-8.7-8-6.7-15.8
		c5.5,5.9,10.5,11.1,15.4,16.4C573.6,722.8,573.7,723.4,573.8,724z"/>
	<path d="M504.1,661.7c3.9,9.6,8.5,20.9,12.6,31.3C508.4,684.3,505.1,672.5,504.1,661.7z"/>
	<path d="M1011.2,830.2c4.6-5.3,9-10.3,12.9-14.7C1022.9,822.8,1017.2,829.7,1011.2,830.2z"/>
</g>
</svg>
